<svg 
 xmlns="http://www.w3.org/2000/svg"
 xmlns:xlink="http://www.w3.org/1999/xlink"
 width="56px" height="56px">
<path fill-rule="evenodd"  fill="rgb(102, 102, 102)"
 d="M48.000,56.000 L40.000,56.000 C35.582,56.000 32.000,52.418 32.000,48.000 L32.000,40.000 C32.000,35.582 35.582,32.000 40.000,32.000 L48.000,32.000 C52.418,32.000 56.000,35.582 56.000,40.000 L56.000,48.000 C56.000,52.418 52.418,56.000 48.000,56.000 ZM52.000,40.000 C52.000,37.791 50.209,36.000 48.000,36.000 L40.000,36.000 C37.791,36.000 36.000,37.791 36.000,40.000 L36.000,48.000 C36.000,50.209 37.791,52.000 40.000,52.000 L48.000,52.000 C50.209,52.000 52.000,50.209 52.000,48.000 L52.000,40.000 ZM48.000,24.000 L40.000,24.000 C35.582,24.000 32.000,20.418 32.000,16.000 L32.000,8.000 C32.000,3.582 35.582,-0.000 40.000,-0.000 L48.000,-0.000 C52.418,-0.000 56.000,3.582 56.000,8.000 L56.000,16.000 C56.000,20.418 52.418,24.000 48.000,24.000 ZM52.000,8.000 C52.000,5.791 50.209,4.000 48.000,4.000 L40.000,4.000 C37.791,4.000 36.000,5.791 36.000,8.000 L36.000,16.000 C36.000,18.209 37.791,20.000 40.000,20.000 L48.000,20.000 C50.209,20.000 52.000,18.209 52.000,16.000 L52.000,8.000 ZM16.000,56.000 L8.000,56.000 C3.582,56.000 -0.000,52.418 -0.000,48.000 L-0.000,40.000 C-0.000,35.582 3.582,32.000 8.000,32.000 L16.000,32.000 C20.418,32.000 24.000,35.582 24.000,40.000 L24.000,48.000 C24.000,52.418 20.418,56.000 16.000,56.000 ZM20.000,40.000 C20.000,37.791 18.209,36.000 16.000,36.000 L8.000,36.000 C5.791,36.000 4.000,37.791 4.000,40.000 L4.000,48.000 C4.000,50.209 5.791,52.000 8.000,52.000 L16.000,52.000 C18.209,52.000 20.000,50.209 20.000,48.000 L20.000,40.000 ZM16.000,24.000 L8.000,24.000 C3.582,24.000 -0.000,20.418 -0.000,16.000 L-0.000,8.000 C-0.000,3.582 3.582,-0.000 8.000,-0.000 L16.000,-0.000 C20.418,-0.000 24.000,3.582 24.000,8.000 L24.000,16.000 C24.000,20.418 20.418,24.000 16.000,24.000 ZM20.000,8.000 C20.000,5.791 18.209,4.000 16.000,4.000 L8.000,4.000 C5.791,4.000 4.000,5.791 4.000,8.000 L4.000,16.000 C4.000,18.209 5.791,20.000 8.000,20.000 L16.000,20.000 C18.209,20.000 20.000,18.209 20.000,16.000 L20.000,8.000 Z"/>
</svg>