<svg 
 xmlns="http://www.w3.org/2000/svg"
 xmlns:xlink="http://www.w3.org/1999/xlink"
 width="64px" height="62px">
<path fill-rule="evenodd"  fill="rgb(102, 102, 102)"
 d="M63.185,33.824 C62.802,34.186 62.307,34.363 61.814,34.365 C61.294,34.365 60.773,34.165 60.384,33.769 L57.723,31.040 L57.723,60.061 C57.723,61.133 56.837,62.000 55.742,62.000 L41.909,62.000 C40.814,62.000 39.928,61.133 39.928,60.061 L39.928,40.700 L24.143,40.700 L24.080,60.067 C24.077,61.137 23.191,62.000 22.099,62.000 L8.260,62.000 C7.167,62.000 6.279,61.133 6.279,60.061 L6.279,31.051 L3.617,33.767 C2.857,34.543 1.605,34.564 0.815,33.824 C0.026,33.082 -0.000,31.854 0.757,31.083 L30.649,0.596 C31.023,0.214 31.538,-0.000 32.078,-0.000 C32.618,-0.000 33.134,0.214 33.508,0.596 L63.244,31.083 C64.000,31.855 63.975,33.083 63.185,33.824 ZM32.078,4.739 L10.179,27.074 C10.216,27.223 10.241,27.376 10.241,27.535 L10.241,58.122 L20.125,58.122 L20.188,38.755 C20.192,37.685 21.078,36.822 22.169,36.822 L41.909,36.822 C43.004,36.822 43.890,37.689 43.890,38.761 L43.890,58.122 L53.762,58.122 L53.762,27.535 C53.762,27.366 53.791,27.205 53.832,27.049 L32.078,4.739 Z"/>
</svg>