<svg 
 xmlns="http://www.w3.org/2000/svg"
 xmlns:xlink="http://www.w3.org/1999/xlink"
 width="54px" height="61px">
<path fill-rule="evenodd"  fill="rgb(102, 102, 102)"
 d="M46.286,61.000 L7.714,61.000 C3.454,61.000 -0.000,57.586 -0.000,53.375 L-0.000,15.250 C-0.000,11.039 3.454,7.625 7.714,7.625 L13.500,7.625 L13.500,3.812 L18.695,3.812 C20.365,1.543 23.440,-0.000 27.000,-0.000 C30.560,-0.000 33.635,1.543 35.305,3.812 L40.500,3.812 L40.500,7.625 L46.286,7.625 C50.546,7.625 54.000,11.039 54.000,15.250 L54.000,53.375 C54.000,57.586 50.546,61.000 46.286,61.000 ZM36.643,7.625 L32.357,7.625 C32.357,5.519 29.959,3.812 27.000,3.812 C24.041,3.812 21.643,5.519 21.643,7.625 L17.357,7.625 L17.357,15.250 L36.643,15.250 L36.643,7.625 ZM50.143,15.250 C50.143,13.145 48.416,11.437 46.286,11.437 L40.500,11.437 L40.500,19.063 L13.500,19.063 L13.500,11.437 L7.714,11.437 C5.584,11.437 3.857,13.145 3.857,15.250 L3.857,53.375 C3.857,55.480 5.584,57.188 7.714,57.188 L46.286,57.188 C48.416,57.188 50.143,55.480 50.143,53.375 L50.143,15.250 ZM40.500,49.562 L13.500,49.562 C12.435,49.562 11.571,48.709 11.571,47.656 C11.571,46.603 12.435,45.750 13.500,45.750 L40.500,45.750 C41.565,45.750 42.428,46.603 42.428,47.656 C42.428,48.709 41.565,49.562 40.500,49.562 ZM40.500,40.031 L13.500,40.031 C12.435,40.031 11.571,39.178 11.571,38.125 C11.571,37.072 12.435,36.219 13.500,36.219 L40.500,36.219 C41.565,36.219 42.428,37.072 42.428,38.125 C42.428,39.178 41.565,40.031 40.500,40.031 ZM40.500,30.500 L13.500,30.500 C12.435,30.500 11.571,29.647 11.571,28.594 C11.571,27.541 12.435,26.687 13.500,26.687 L40.500,26.687 C41.565,26.687 42.428,27.541 42.428,28.594 C42.428,29.647 41.565,30.500 40.500,30.500 Z"/>
</svg>