<svg 
 xmlns="http://www.w3.org/2000/svg"
 xmlns:xlink="http://www.w3.org/1999/xlink"
 width="45px" height="61px">
<path fill-rule="evenodd"  fill="rgb(102, 102, 102)"
 d="M36.818,61.000 L22.500,46.766 L8.182,61.000 C3.663,61.000 -0.000,57.359 -0.000,52.866 L-0.000,8.133 C-0.000,3.641 3.663,-0.000 8.182,-0.000 L36.818,-0.000 C41.337,-0.000 45.000,3.641 45.000,8.133 L45.000,52.866 C45.000,57.359 41.337,61.000 36.818,61.000 ZM40.909,8.133 C40.909,5.887 39.077,4.067 36.818,4.067 L8.182,4.067 C5.922,4.067 4.091,5.887 4.091,8.133 L4.091,52.866 C4.091,55.112 5.922,56.933 8.182,56.933 L22.500,42.700 L36.818,56.933 C39.077,56.933 40.909,55.112 40.909,52.866 L40.909,8.133 Z"/>
</svg>