<svg 
 xmlns="http://www.w3.org/2000/svg"
 xmlns:xlink="http://www.w3.org/1999/xlink"
 width="65px" height="61px">
<path fill-rule="evenodd"  fill="rgb(102, 102, 102)"
 d="M12.187,56.933 C12.187,59.179 14.006,61.000 16.250,61.000 L22.344,61.000 C24.587,61.000 26.406,59.179 26.406,56.933 L26.406,40.666 L42.656,40.666 L60.937,52.866 C63.181,52.866 65.000,51.045 65.000,48.800 L65.000,4.067 C65.000,1.821 63.181,-0.000 60.937,-0.000 L42.656,12.200 L16.250,12.200 C7.275,12.200 -0.000,17.449 -0.000,26.433 C-0.000,34.024 5.163,39.321 12.187,40.666 C12.280,41.214 12.187,56.933 12.187,56.933 ZM22.344,40.666 L22.344,54.900 C22.344,56.023 21.434,56.933 20.312,56.933 L18.281,56.933 C17.159,56.933 16.250,56.023 16.250,54.900 L16.250,40.666 C16.250,40.666 21.328,40.666 22.344,40.666 ZM16.250,16.267 C12.079,16.133 4.062,17.449 4.062,26.433 C4.062,35.417 12.212,36.600 16.250,36.600 L32.500,36.600 L32.500,16.267 L16.250,16.267 ZM42.656,36.600 L36.562,36.600 L36.562,16.267 L42.656,16.267 C42.656,16.267 42.656,34.386 42.656,36.600 ZM60.937,48.800 L46.719,38.633 C46.719,35.358 46.719,16.092 46.719,14.233 L60.937,4.067 C60.937,6.545 60.937,46.512 60.937,48.800 Z"/>
</svg>